<svg xmlns="http://www.w3.org/2000/svg" viewBox="0 0 2904 1501">
	<style type="text/css">  
		.st0 {
			fill: #FFFFFF;
		}
	</style>

  <path
    class="st0"
    d="M2048.2 818.5c-57.4-25.1-114.1-51.5-171.1-77.3 -55.2-25-113.1-40.1-173.6-43.6 -115.1-6.6-220.1 23.3-315.1 88.6 -7.5 5.1-14.7 10.7-21.1 15.4 0 42.3 0 83.3 0 124.4 6-5.6 11.4-10.8 16.9-15.9 5.7-5.4 11.3-10.9 17.2-16 103.4-88.7 221.6-122 355.9-95.3 35.5 7.1 68.3 21.3 101.1 36.1 57 25.9 113.6 52.6 171.4 76.6 75.3 31.2 154.2 40.7 235.1 31.8 92.7-10.2 175.7-44.9 249.8-101.4 2-1.5 3.8-3.4 5.5-4.9 0-41.6 0-82.7 0-125.5 -13.6 13.1-25.5 25.4-38.3 36.9C2361.1 856.2 2196 883.1 2048.2 818.5z"
  />
  <path
    class="st0"
    d="M911.7 945.6c75.1-1.9 130.9-75.7 115.1-149.4 -4.8-22.6-15.1-42.2-30.8-60 1.2-2.2 1.9-3.6 2.7-5 45-81.6-11.1-176.6-104.5-176.8 -57.4-0.1-114.9 0-172.3 0 -3.4 0-6.9 0.3-10.3 0.5 0 130.8 0 260.5 0 390.4 1.8 0.3 3.1 0.7 4.3 0.7C781.2 946 846.4 947.2 911.7 945.6zM804.9 647.8c11.9 0 23.3 0 34.6 0 19.2 0 38.5-0.3 57.7 0.1 18 0.4 29.2 17.6 22.3 33.7 -3.8 8.8-10.9 14.6-20.3 14.7 -31.2 0.5-62.5 0.2-94.4 0.2C804.9 680.3 804.9 664.8 804.9 647.8zM804.7 790.3c1.9-0.3 3.4-0.8 5-0.8 31.3 0 62.6-0.3 93.9 0.1 17.9 0.2 31.2 12.6 32.4 29 1.3 17.9-10.6 33.7-28.7 34.3 -33.8 1.1-67.7 0.3-102.6 0.3C804.7 831.6 804.7 811.1 804.7 790.3z"
  />
  <path
    class="st0"
    d="M1708.2 16.4c-37 0-72 0-107.4 0 -178.7 309.6-357.3 618.9-536.5 929.3 37 0 71.9 0 107.4 0C1350.6 635.9 1529.1 326.7 1708.2 16.4z"
  />
  <path
    class="st0"
    d="M2388.5 1323.2c-0.7 0.3-1.4 0.5-2.2 0.8 -56.1-77.1-112.2-154.1-167.7-230.3 -31.8 0-62.4 0-93 0 0 130.6 0 260.5 0 390.4 31 0 61.3 0 92.8 0 0-76.9 0-153.2 0-229.6 0.6-0.1 1.3-0.3 1.9-0.4 56 76.9 112 153.8 167.3 229.9 31.8 0 62.3 0 92.9 0 0-130.4 0-260.1 0-390.4 -30.7 0-60.8 0-92.1 0C2388.5 1170.4 2388.5 1246.8 2388.5 1323.2z"
  />
  <path
    class="st0"
    d="M1365.8 1323.4c-0.6 0.1-1.2 0.3-1.8 0.4 -56-76.9-112-153.8-167.7-230.3 -31.5 0-62 0-93.1 0 0 130.9 0 260.6 0 390.3 31.1 0 61.6 0 93 0 0-76.9 0-153.1 0-229.2 0.6-0.2 1.2-0.4 1.9-0.6 55.9 76.8 111.9 153.7 167.5 230 31.4 0 61.9 0 92.6 0 0-130.5 0-260.4 0-390.3 -30.9 0-61.1 0-92.4 0C1365.8 1170.7 1365.8 1247 1365.8 1323.4z"
  />
  <path
    class="st0"
    d="M2872.1 1268.7c-11.1-100.6-94.7-175.6-196.1-175.8 -48-0.1-95.9 0-143.9 0 -3.5 0-7 0-11 0 0 131.5 0 261.2 0 391.2 2.9 0.2 5.2 0.5 7.4 0.5 50.9 0 101.8 0.1 152.7-0.1 8.1 0 16.3-0.9 24.3-2C2808.4 1468.6 2883.5 1372.1 2872.1 1268.7zM2780.1 1291.6c-1.6 50.4-39.2 93.5-89 98.6 -25.1 2.6-50.6 0.5-76.9 0.5 0-67.9 0-135.6 0-204.1 24.5 0 48.6-0.1 72.6 0.1 3.9 0 7.8 1 11.6 1.8C2746.6 1198.3 2781.7 1242.7 2780.1 1291.6z"
  />
  <path
    class="st0"
    d="M625.4 1192.1c-19.4-58.6-75-99-136.5-99.1 -51.2-0.1-102.5 0-153.7 0 -3.4 0-6.8 0.3-10.1 0.4 0 131 0 260.7 0 390.6 30.8 0 61 0 92.2 0 0-34 0-67.4 0-101.4 16.9 0 32.7 0 48.8 0 19.7 34.1 39.3 67.9 58.5 101.3 35.9 0 70.9 0 107.3 0 -12.2-21.1-23.7-41.1-35.2-61.1 -11.5-20-23.1-40-34.9-60.4 4.8-3.4 9-6.3 13.2-9.4C624.5 1316 644.9 1250.9 625.4 1192.1zM500.5 1287.4c-1.6 0.4-3.2 0.9-4.8 0.9 -25.7 0.1-51.4 0-78.1 0 0-34.2 0-67.4 0-101.1 2.4-0.3 4.5-0.9 6.7-0.9 21.5-0.1 43-0.2 64.6 0 26.8 0.3 47.4 19.4 50.8 46.3C542.6 1257 525.4 1281.2 500.5 1287.4z"
  />
  <path
    class="st0"
    d="M868.5 1093c-108.1-0.4-196.5 87.7-196.7 195.7 -0.1 108.2 87.7 195.9 196.2 195.9 108.1-0.1 195.3-87.3 195.4-195.4C1063.5 1181.1 976.3 1093.3 868.5 1093zM867.8 1391.9c-56.5 0.1-102.7-46.2-102.7-102.9 0-56.9 45.7-102.7 102.6-102.7 56.8 0 103 46.1 103 102.6C970.7 1345.3 924.2 1391.8 867.8 1391.9z"
  />
  <path
    class="st0"
    d="M456.4 843.6c4.9 0 8.7 0.1 12.5 0 25.4-0.4 51 0.9 76.2-1.7 83.7-8.5 142.2-92 123.3-174.3 -15.5-67-73.5-113.2-142.3-113.2 -50.2 0-100.5 0-150.7 0 -3.5 0-7 0-11.1 0 0 131 0 260.9 0 391.1 30.8 0 60.9 0 92.1 0C456.4 911.5 456.4 878.1 456.4 843.6zM456.9 647.8c4.9 0 9.3 0 13.8 0 19.2 0 38.5-0.2 57.7 0.1 26.6 0.4 47.3 19.8 50.4 46.7 2.7 24-14.1 47.8-38.6 54.2 -3.4 0.9-7.1 1.4-10.6 1.4 -22.5 0.1-45 0.1-67.5 0.1 -1.6 0-3.1-0.4-5.2-0.7C456.9 715.8 456.9 682.4 456.9 647.8z"
  />
  <path
    class="st0"
    d="M1925.2 1336.6c34.2 0 67.6 0 101.2 0 0-31.3 0-61.5 0-93.1 -34.2 0-67.8 0-101.2 0 0-19.8 0-38.2 0-57.6 53.7 0 106.8 0 159.6 0 0-31.5 0-61.9 0-92.2 -84.8 0-168.8 0-253.2 0 0 130.4 0 260.1 0 390.3 84.8 0 169 0 253.4 0 0-30.8 0-61 0-92.2 -53.6 0-106.6 0-159.8 0C1925.2 1373 1925.2 1355.3 1925.2 1336.6z"
  />
  <path
    class="st0"
    d="M226.3 712.7c-28.2-5.3-56.2-11.4-84.3-17.4 -10.9-2.3-18.1-11.6-18.5-22.4 -0.4-10.4 6.7-20.9 16.9-23.8 4-1.2 8.4-1.2 12.6-1.2 35.6-0.1 71.1-0.1 106.7-0.1 3.5 0 7 0 10.5 0 17.9-31 35.3-61.1 53.6-92.9 -3.8-0.2-5.7-0.4-7.5-0.4 -56.5 0-112.9-0.1-169.4 0.1 -7.8 0-15.7 1.1-23.3 2.8 -55.6 12.1-93.4 59.6-92.9 116.3 0.5 55.6 39.7 102.6 94.9 113.8 28.4 5.8 56.9 11.5 85.2 17.5 13.6 2.9 21.1 12.8 20.1 25.9 -0.9 13.2-11.2 22.3-26.1 22.5 -27.4 0.2-54.8 0.1-82.2 0.1 -12.7 0-25.4 0-38.4 0 -17.7 30.6-35.2 61-53.5 92.7 5.7 0 9.3 0 12.8 0 50.9 0 101.8 0 152.7 0 5.5 0 11.1 0.1 16.6-0.1 63.1-2.4 114.6-58.8 111.4-121.8C321.5 767.9 281.7 723.1 226.3 712.7z"
  />
  <path
    class="st0"
    d="M31.4 1484.1c30.7 0 60.9 0 92.1 0 0-48.9 0-97.4 0-147 34.7 0 68.4 0 102.4 0 0-31.7 0-62.1 0-93.8 -34.4 0-68.1 0-101.6 0 0-19.7 0-38 0-57.3 53.8 0 106.9 0 160.4 0 0-31.3 0-61.7 0-92.6 -84.7 0-168.7 0-253.3 0C31.4 1223.9 31.4 1353.8 31.4 1484.1z"
  />
  <path
    class="st0"
    d="M2872.7 945.3c-103.8-179.9-207-358.6-310.3-537.4 -35.3 0-70.1 0-107.4 0 104.1 180.3 207.4 359.2 310.2 537.4C2801.5 945.3 2836.4 945.3 2872.7 945.3z"
  />
  <path
    class="st0"
    d="M1498.9 1186.5c33.2 0 65.7 0 99.2 0 0 99.7 0 198.4 0 297.4 31.5 0 61.9 0 93.4 0 0-99.4 0-198.1 0-297.8 33.8 0 66.6 0 99.9 0 0-31.3 0-61.5 0-92.5 -98.1 0-195.2 0-292.5 0C1498.9 1124.7 1498.9 1155.1 1498.9 1186.5z"
  />
</svg>
