<svg xmlns="http://www.w3.org/2000/svg" width="500" height="238" viewBox="0 0 500 238">
  <path fill="#FFFFFF" fill-rule="evenodd" d="M38.7655267,153.948454 C46.2183786,153.948454 52.7944244,151.758614 58.2013954,147.232945 C63.7545007,142.707276 66.5310534,137.45166 66.5310534,131.320109 C66.5310534,111.46556 43.4418259,109.129731 34.0892275,104.458072 C26.9286443,100.370371 31.6049435,92.9249154 38.7655267,92.9249154 C43.5879603,92.9249154 46.3645129,95.9906913 47.0951847,98.3265205 C47.8258564,100.808339 49.5794687,102.122243 52.3560213,102.122243 L61.7086198,102.122243 C63.9006351,102.122243 65.6542473,100.370371 65.6542473,98.1805312 C65.6542473,93.6548621 63.3160977,89.2751822 58.6397984,84.7495131 C53.9634992,80.2238439 47.3874534,78.034004 39.0577954,78.034004 C31.8972122,78.034004 25.6134351,80.0778546 20.3525985,84.1655558 C15.2378962,88.2532569 12.6074779,93.5088727 12.6074779,99.9324031 C12.6074779,113.6554 25.4673007,118.473048 35.4044366,122.122781 C42.2727511,124.604599 47.8258564,127.670375 47.8258564,131.904066 C47.8258564,135.553799 45.0493038,138.911554 39.0577954,138.911554 C34.0892275,138.911554 30.8742717,137.159682 29.4129282,133.509948 C28.3899878,131.02813 26.6363756,129.714226 23.8598229,129.714226 L14.9456275,129.714226 C12.7536122,129.714226 11,131.466098 11,133.655938 C11,138.035618 13.3381496,142.561287 18.1605832,147.086956 C22.9830168,151.612625 29.8513313,153.948454 38.7655267,153.948454 Z M147.799819,96.657277 L146.046207,95.4893624 L146.046207,121.329473 C146.046207,123.519313 144.292594,125.271185 142.100579,125.271185 L131.72504,125.271185 C129.533025,125.271185 127.779413,123.519313 127.779413,121.329473 L127.779413,29.9401544 C127.779413,27.7503145 129.533025,25.9984425 131.72504,25.9984425 L140.639236,25.9984425 C142.831251,25.9984425 144.584863,27.7503145 144.584863,29.9401544 L144.584863,31.108069 C148.822759,26.8743785 154.22973,24.8305279 161.098045,24.8305279 C168.258628,24.8305279 174.396271,27.1663572 179.510973,31.984005 C184.625675,36.6556634 187.109959,42.4952365 187.109959,49.6487136 L187.109959,75.3428352 C187.109959,82.6423016 184.625675,88.627864 179.510973,93.4455118 C174.396271,98.1171703 168.404762,100.453 161.390313,100.453 C155.544939,100.453 149.991834,98.4091489 147.799819,96.657277 Z M280.771863,127.227838 L280.771863,155.987735 C284.425222,152.629981 289.539924,151.024098 296.11597,151.024098 C303.130419,151.024098 309.121927,153.359927 314.236629,158.177575 C319.351332,162.849234 321.835616,168.834796 321.835616,176.134262 L321.835616,201.828384 C321.835616,208.981861 319.351332,214.821434 314.236629,219.639082 C309.121927,224.31074 302.984284,226.64657 295.823701,226.64657 C288.955387,226.64657 283.548416,224.602719 279.31052,220.369029 L279.31052,221.536943 C279.31052,223.726783 277.556907,225.478655 275.364892,225.478655 L266.450697,225.478655 C264.258681,225.478655 262.505069,223.726783 262.505069,221.536943 L262.505069,127.227838 C262.505069,125.037998 264.258681,123.286126 266.450697,123.286126 L276.826236,123.286126 C279.018251,123.286126 280.771863,125.037998 280.771863,127.227838 Z M382.481371,53.6537864 C383.504312,54.383733 383.942715,55.259669 383.942715,56.4275836 C383.942715,57.1575302 383.650446,57.8874768 383.212043,58.6174235 L378.243475,65.6249112 C377.512803,66.5008472 376.635997,66.9388151 375.613057,66.9388151 C374.736251,66.9388151 374.005579,66.6468365 373.274907,66.2088685 C365.529787,61.099242 354.861979,65.1869432 355.592651,73.9463029 L355.592651,79.4938973 L378.535744,79.4938973 C380.43549,79.4938973 382.189103,81.0997799 382.189103,82.9976412 L382.189103,91.1730435 C382.189103,93.0709047 380.43549,94.6767873 378.535744,94.6767873 L355.592651,94.6767873 L355.592651,148.546849 C355.592651,150.736689 353.839039,152.488561 351.647023,152.488561 L341.563753,152.488561 C339.371738,152.488561 337.618126,150.736689 337.618126,148.546849 L337.618126,94.6767873 L324.612168,94.6767873 C322.712422,94.6767873 320.95881,93.0709047 320.95881,91.1730435 L320.95881,82.9976412 C320.95881,81.0997799 322.712422,79.4938973 324.612168,79.4938973 L337.618126,79.4938973 L337.618126,74.3842708 C337.618126,67.0848045 340.248544,60.9532527 345.363246,56.1356049 C350.477948,51.3179571 357.053994,48.8361385 365.091384,48.8361385 C372.105832,48.8361385 377.951206,50.4420211 382.481371,53.6537864 Z M469.788075,14.4272962 L469.788075,27.6223866 L481.280923,23.6809959 C482.481668,23.5096311 483.167809,23.3382663 483.510879,23.3382663 C484.711624,23.3382663 485.569299,24.3664552 486.255439,26.2514681 L488.31386,32.0778716 C488.31386,32.5919661 489,34.1342494 489,34.8197086 C489,36.1906271 488.142325,37.2188159 486.598509,37.7329104 L474.247986,42.1883954 L482.138598,52.470284 C482.481668,53.1557433 482.653203,53.8412025 482.653203,54.5266617 C482.653203,55.7262154 481.967063,56.7544043 480.594783,57.6112283 L474.934127,61.8953486 C474.419521,62.5808078 473.561846,62.9235374 472.704171,62.9235374 C471.503426,62.9235374 470.645751,62.409443 469.788075,61.3812541 L462.068999,51.2707304 L454.349922,61.552619 C453.835317,62.409443 453.149176,62.9235374 451.948431,62.9235374 C450.919221,62.9235374 450.061546,62.5808078 449.20387,61.7239838 L443.028609,57.4398635 C441.999399,56.5830395 441.484794,55.5548506 441.484794,54.5266617 C441.484794,53.8412025 441.656329,53.1557433 441.999399,52.470284 L449.546941,42.1883954 L437.367953,38.07564 C435.824137,37.5615456 435.137997,36.3619919 435.137997,34.8197086 C435.137997,33.9628845 435.309532,33.1060605 435.652602,32.0778716 L437.539488,26.2514681 C438.225628,24.3664552 439.254838,23.3382663 440.627118,23.3382663 C440.798653,23.3382663 441.484794,23.5096311 442.857074,23.6809959 L454.349922,27.6223866 L454.349922,14.4272962 C454.349922,12.5422833 456.236807,11 458.466763,11 L465.671234,11 C467.90119,11 469.788075,12.5422833 469.788075,14.4272962 Z"/>
</svg>
