<svg width="375" height="81" viewBox="0 0 375 81" fill="none" xmlns="http://www.w3.org/2000/svg">
  <path d="M221.474 39.497c-18.67-8.14-37.113-16.701-55.653-25.068C147.866 6.322 129.033 1.426 109.355.291 71.916-1.85 37.764 7.846 6.863 29.022c-2.44 1.654-4.781 3.47-6.863 4.994v40.342c1.952-1.817 3.708-3.503 5.497-5.157 1.854-1.75 3.676-3.534 5.595-5.188C44.724 35.249 83.17 24.45 126.854 33.108c11.547 2.303 22.216 6.908 32.884 11.707 18.541 8.4 36.951 17.058 55.751 24.84 24.493 10.118 50.156 13.199 76.47 10.313 30.153-3.308 57.15-14.56 81.252-32.883.651-.486 1.236-1.102 1.789-1.589V4.798c-4.424 4.248-8.294 8.237-12.458 11.966-39.292 34.958-92.993 43.682-141.068 22.733Z" fill="#191B2B"/>
</svg>