<svg width="21" height="21" viewBox="0 0 21 21" fill="none" xmlns="http://www.w3.org/2000/svg">
<path fill-rule="evenodd" clip-rule="evenodd" d="M20.4682 10.1887C20.4682 15.8154 15.9062 20.3774 10.2795 20.3774C4.65276 20.3774 0.0907593 15.8154 0.0907593 10.1887C0.0907593 4.562 4.65276 0 10.2795 0C15.9062 0 20.4682 4.562 20.4682 10.1887ZM10.6446 7.52182C9.65372 7.93361 7.67286 8.78692 4.70285 10.0809C4.22059 10.2728 3.96757 10.4604 3.94464 10.6438C3.90558 10.9546 4.29445 11.0768 4.82257 11.2424C4.89474 11.2653 4.96946 11.2882 5.04587 11.3137C5.56635 11.4827 6.26597 11.6805 6.62937 11.6882C6.95965 11.6949 7.32815 11.5591 7.73484 11.2806C10.5096 9.40673 11.9419 8.46003 12.0319 8.43965C12.0956 8.42522 12.1839 8.40654 12.2434 8.46003C12.3028 8.51267 12.2968 8.61286 12.2909 8.64003C12.2518 8.8039 10.7286 10.221 9.939 10.9546C9.69278 11.183 9.51872 11.3451 9.48306 11.3825C9.40325 11.4649 9.32174 11.5438 9.24362 11.6194C8.75966 12.0847 8.39796 12.4345 9.264 13.005C9.68004 13.2793 10.0129 13.506 10.3449 13.7318C10.7074 13.9789 11.0691 14.2251 11.5378 14.5325C11.6567 14.6106 11.7704 14.6913 11.8817 14.7702C12.3036 15.0717 12.6832 15.3417 13.1518 15.2992C13.4235 15.2737 13.7054 15.0182 13.8481 14.2549C14.1852 12.4498 14.8491 8.54069 15.0028 6.92918C15.0121 6.79538 15.0065 6.66095 14.9858 6.52842C14.9735 6.42138 14.9213 6.32289 14.8398 6.25248C14.7184 6.15314 14.5299 6.13191 14.445 6.13361C14.062 6.1404 13.4745 6.34502 10.6446 7.52182Z" fill="white"/>
</svg>
