<svg width="23" height="20" viewBox="0 0 23 20" fill="none" xmlns="http://www.w3.org/2000/svg">
<path d="M22.7065 2.93695C21.8715 3.30695 20.9745 3.55696 20.0315 3.66996C21.0045 3.08775 21.7324 2.17142 22.0795 1.09195C21.1653 1.63494 20.1648 2.01715 19.1215 2.22196C18.4199 1.47282 17.4905 0.976281 16.4778 0.809429C15.4651 0.642577 14.4256 0.814746 13.5207 1.29921C12.6159 1.78367 11.8963 2.55332 11.4736 3.48866C11.051 4.424 10.949 5.4727 11.1835 6.47195C9.33117 6.37895 7.51912 5.8975 5.86491 5.05886C4.21071 4.22022 2.75133 3.04312 1.58149 1.60396C1.18149 2.29396 0.951488 3.09396 0.951488 3.94596C0.951042 4.71295 1.13992 5.4682 1.50137 6.14469C1.86281 6.82118 2.38565 7.39799 3.02349 7.82396C2.28376 7.80042 1.56036 7.60054 0.913488 7.24095V7.30095C0.913414 8.3767 1.28552 9.41933 1.96667 10.252C2.64782 11.0846 3.59606 11.6559 4.65049 11.869C3.96427 12.0547 3.24483 12.082 2.54649 11.949C2.84399 12.8746 3.42348 13.684 4.20386 14.2639C4.98423 14.8438 5.92641 15.1651 6.89849 15.183C5.24832 16.4784 3.21038 17.181 1.11249 17.178C0.740869 17.1781 0.369565 17.1564 0.000488281 17.113C2.12996 18.4821 4.60883 19.2088 7.14049 19.206C15.7105 19.206 20.3955 12.108 20.3955 5.95195C20.3955 5.75196 20.3905 5.54995 20.3815 5.34995C21.2928 4.69093 22.0794 3.87485 22.7045 2.93995L22.7065 2.93695Z" fill="white"/>
</svg>
