<svg width="21" height="14" viewBox="0 0 21 14" fill="none" xmlns="http://www.w3.org/2000/svg">
<path d="M20.1388 2.52489C20.0234 2.1133 19.7987 1.74066 19.4884 1.44659C19.1694 1.14348 18.7784 0.926653 18.3524 0.816585C16.7578 0.3963 10.3695 0.3963 10.3695 0.3963C7.70629 0.366 5.04372 0.49927 2.39684 0.795358C1.97077 0.913558 1.58052 1.13523 1.2608 1.44064C0.946645 1.74291 0.719097 2.11565 0.600229 2.52404C0.314684 4.06232 0.175947 5.62425 0.185888 7.18878C0.175699 8.7519 0.314096 10.3133 0.600229 11.8535C0.71655 12.2602 0.943249 12.6313 1.25825 12.931C1.57325 13.2307 1.96552 13.4472 2.39684 13.5618C4.0126 13.9813 10.3695 13.9813 10.3695 13.9813C13.0361 14.0116 15.7021 13.8783 18.3524 13.5822C18.7784 13.4721 19.1694 13.2553 19.4884 12.9522C19.8026 12.6525 20.0259 12.2797 20.1379 11.8739C20.4309 10.3362 20.5734 8.77363 20.5633 7.20831C20.5854 5.63636 20.4431 4.06642 20.1388 2.52404V2.52489ZM8.33856 10.096V4.28245L13.6537 7.18963L8.33856 10.096Z" fill="white"/>
</svg>
