<svg width="46" height="44" viewBox="0 0 46 44" fill="none" xmlns="http://www.w3.org/2000/svg">
    <path fill-rule="evenodd" clip-rule="evenodd" d="M32 16C32 14.8954 32.8954 14 34 14H36C38.6522 14 41.1957 15.0536 43.0711 16.9289C44.9464 18.8043 46 21.3478 46 24C46 26.6522 44.9464 29.1957 43.0711 31.0711C41.1957 32.9464 38.6522 34 36 34H34C32.8954 34 32 33.1046 32 32C32 30.8954 32.8954 30 34 30H36C37.5913 30 39.1174 29.3679 40.2426 28.2426C41.3679 27.1174 42 25.5913 42 24C42 22.4087 41.3679 20.8826 40.2426 19.7574C39.1174 18.6321 37.5913 18 36 18H34C32.8954 18 32 17.1046 32 16Z" fill="#7963FB"/>
    <path fill-rule="evenodd" clip-rule="evenodd" d="M0 16C0 14.8954 0.89543 14 2 14H34C35.1046 14 36 14.8954 36 16V34C36 36.6522 34.9464 39.1957 33.0711 41.0711C31.1957 42.9464 28.6522 44 26 44H10C7.34783 44 4.8043 42.9464 2.92893 41.0711C1.05357 39.1957 0 36.6522 0 34V16ZM4 18V34C4 35.5913 4.63214 37.1174 5.75736 38.2426C6.88258 39.3679 8.4087 40 10 40H26C27.5913 40 29.1174 39.3679 30.2426 38.2426C31.3679 37.1174 32 35.5913 32 34V18H4Z" fill="#7963FB"/>
    <path fill-rule="evenodd" clip-rule="evenodd" d="M10 0C11.1046 0 12 0.89543 12 2V8C12 9.10457 11.1046 10 10 10C8.89543 10 8 9.10457 8 8V2C8 0.89543 8.89543 0 10 0Z" fill="#7963FB"/>
    <path fill-rule="evenodd" clip-rule="evenodd" d="M18 0C19.1046 0 20 0.89543 20 2V8C20 9.10457 19.1046 10 18 10C16.8954 10 16 9.10457 16 8V2C16 0.89543 16.8954 0 18 0Z" fill="#7963FB"/>
    <path fill-rule="evenodd" clip-rule="evenodd" d="M26 0C27.1046 0 28 0.89543 28 2V8C28 9.10457 27.1046 10 26 10C24.8954 10 24 9.10457 24 8V2C24 0.89543 24.8954 0 26 0Z" fill="#7963FB"/>
</svg>
