<svg width="50" height="51" viewBox="0 0 50 51" fill="none" xmlns="http://www.w3.org/2000/svg">
    <path d="M7.5 40.6818V50.0968L11.2875 47.8243L23.1925 40.6818H35C37.7575 40.6818 40 38.4393 40 35.6818V15.6818C40 12.9243 37.7575 10.6818 35 10.6818H5C2.2425 10.6818 0 12.9243 0 15.6818V35.6818C0 38.4393 2.2425 40.6818 5 40.6818H7.5ZM5 15.6818H35V35.6818H21.8075L12.5 41.2668V35.6818H5V15.6818Z" fill="#7963FB"/>
    <path d="M45 0.681763H15C12.2425 0.681763 10 2.92426 10 5.68176H40C42.7575 5.68176 45 7.92426 45 10.6818V30.6818C47.7575 30.6818 50 28.4393 50 25.6818V5.68176C50 2.92426 47.7575 0.681763 45 0.681763Z" fill="#7963FB"/>
</svg>
