<svg width="50" height="40" viewBox="0 0 50 40" fill="none" xmlns="http://www.w3.org/2000/svg">
    <path d="M48.2143 0H1.78571C0.797991 0 0 0.797991 0 1.78571V37.5C0 38.4877 0.797991 39.2857 1.78571 39.2857H48.2143C49.202 39.2857 50 38.4877 50 37.5V1.78571C50 0.797991 49.202 0 48.2143 0ZM45.9821 6.18303V35.2679H4.01786V6.18303L2.47768 4.98326L4.67076 2.16518L7.05915 4.02344H42.9464L45.3348 2.16518L47.5279 4.98326L45.9821 6.18303ZM42.9464 4.01786L25 17.9688L7.05357 4.01786L4.66518 2.1596L2.4721 4.97768L4.01228 6.17746L23.0748 20.9989C23.623 21.4248 24.2974 21.656 24.9916 21.656C25.6858 21.656 26.3603 21.4248 26.9085 20.9989L45.9821 6.18303L47.5223 4.98326L45.3292 2.16518L42.9464 4.01786Z" fill="#7963FB"/>
</svg>
