<svg width="49" height="37" viewBox="0 0 49 37" fill="none" xmlns="http://www.w3.org/2000/svg">
    <path d="M30.2977 0.000807167C29.3265 0.00780717 28.3622 0.0550576 27.3438 0.328058C26.2342 0.629242 25.1814 1.10983 24.227 1.75081C22.8865 0.963307 21.588 0.315807 20.3438 0.163557C18.7985 -0.0271929 17.3635 0.0760575 15.6957 0.111058C13.7182 0.151308 12.4285 1.16106 10.3355 1.96956C8.24425 2.77456 5.551 3.55506 1.75 3.55506H0V20.3988L0.98525 20.8906L4.2105 22.4778L15.6957 35.2738L15.75 35.3281C17.0625 36.6266 18.8335 36.9486 20.398 36.8593C21.9643 36.7718 23.4342 36.3133 24.6085 35.6028C27.1933 34.0436 34.2335 29.1488 34.2335 29.1488L34.398 29.0386L34.5083 28.9301C35.3413 28.1023 35.7595 27.0926 36.0395 26.0321L42.7648 22.6406L47.796 20.9466L49 20.5616V3.55506H47.25C44.3083 3.57517 41.3913 3.01745 38.6645 1.91356C36.5715 1.09631 35.301 0.0970574 33.3025 0.0550574C32.235 0.0340574 31.2655 -0.00619283 30.296 0.000807167H30.2977ZM30.3503 3.50081C31.1378 3.49381 32.0477 3.53581 33.1958 3.55506C33.3795 3.56206 35.0612 4.27956 37.4062 5.19656C39.389 5.97531 42.1435 6.66656 45.5 6.89056V18.0468L41.4523 19.4153H41.3438L41.2335 19.4678L35.931 22.1488C35.6495 21.3367 35.2026 20.5918 34.6185 19.9613L34.5083 19.7968L27.0707 10.6653L25.977 9.29681L24.6085 10.3906L19.9062 14.2196C18.3277 15.3133 17.0485 14.9983 15.75 14.3841C15.3737 14.2056 15.3947 14.1513 15.0938 13.9466L23.079 7.32806L23.1875 7.21956C25.5588 4.86756 27.0165 4.05381 28.273 3.71956C28.903 3.54806 29.5662 3.50781 30.352 3.50081H30.3503ZM18.158 3.55506C18.7419 3.53305 19.3266 3.55118 19.908 3.60931C20.3665 3.66356 20.8862 4.05381 21.3307 4.21131C21.1523 4.37581 21.0227 4.47031 20.8372 4.64881L20.7288 4.75906L11.158 12.6866L9.681 13.8906L10.9935 15.2573C10.9935 15.2573 12.2588 16.6258 14.2205 17.5551C16.1823 18.4843 19.2115 19.0111 21.931 17.1176L22.0413 17.0073L25.431 14.2196L31.885 22.1488L31.9392 22.2591L31.9935 22.3116C33.1485 23.4543 33.1222 25.2516 31.9935 26.4153C31.9795 26.4276 32.0075 26.4556 31.9935 26.4678C31.9795 26.4766 31.7485 26.6131 31.7205 26.6341L29.4227 23.5156L26.579 25.5946L28.8225 28.6011C27.9125 29.2171 27.503 29.5391 26.5247 30.1883L24.1745 27.0156L21.329 29.0946L23.5725 32.1011C23.373 32.2236 22.9635 32.4983 22.806 32.5946C22.253 32.9288 21.1855 33.3051 20.2352 33.3593C19.341 33.4083 18.6567 33.2018 18.3225 32.9218L18.2682 32.8676L6.56425 19.9071L6.3455 19.6323L3.5 18.2113V6.89056C6.8425 6.67181 9.618 6.00856 11.5938 5.25081C13.9318 4.35481 15.6013 3.61631 15.8043 3.60931L18.1562 3.55506H18.158Z" fill="#7963FB"/>
</svg>
