<svg width="43" height="47" viewBox="0 0 43 47" fill="none" xmlns="http://www.w3.org/2000/svg">
    <path fill-rule="evenodd" clip-rule="evenodd" d="M34.25 4C31.7923 4 29.8 5.99233 29.8 8.45C29.8 10.9077 31.7923 12.9 34.25 12.9C36.7077 12.9 38.7 10.9077 38.7 8.45C38.7 5.99233 36.7077 4 34.25 4ZM25.8 8.45C25.8 3.78319 29.5832 0 34.25 0C38.9168 0 42.7 3.78319 42.7 8.45C42.7 13.1168 38.9168 16.9 34.25 16.9C29.5832 16.9 25.8 13.1168 25.8 8.45Z" fill="#7963FB"/>
    <path fill-rule="evenodd" clip-rule="evenodd" d="M34.25 34.1C31.7923 34.1 29.8 36.0923 29.8 38.55C29.8 41.0076 31.7923 43 34.25 43C36.7077 43 38.7 41.0076 38.7 38.55C38.7 36.0923 36.7077 34.1 34.25 34.1ZM25.8 38.55C25.8 33.8832 29.5832 30.1 34.25 30.1C38.9168 30.1 42.7 33.8832 42.7 38.55C42.7 43.2168 38.9168 47 34.25 47C29.5832 47 25.8 43.2168 25.8 38.55Z" fill="#7963FB"/>
    <path fill-rule="evenodd" clip-rule="evenodd" d="M8.45 19.05C5.99233 19.05 4 21.0424 4 23.5C4 25.9577 5.99233 27.95 8.45 27.95C10.9077 27.95 12.9 25.9577 12.9 23.5C12.9 21.0424 10.9077 19.05 8.45 19.05ZM0 23.5C0 18.8332 3.78319 15.05 8.45 15.05C13.1168 15.05 16.9 18.8332 16.9 23.5C16.9 28.1669 13.1168 31.9501 8.45 31.9501C3.78319 31.9501 0 28.1669 0 23.5Z" fill="#7963FB"/>
    <path fill-rule="evenodd" clip-rule="evenodd" d="M30.4048 10.6931C30.9613 11.6472 30.6391 12.8718 29.685 13.4284L15.0349 21.9747C14.0808 22.5313 12.8562 22.209 12.2996 21.2549C11.743 20.3008 12.0653 19.0762 13.0193 18.5196L27.6694 9.97335C28.6235 9.41677 29.8482 9.73902 30.4048 10.6931ZM12.2996 25.7453C12.8562 24.7912 14.0808 24.4689 15.0349 25.0255L29.685 33.5718C30.6391 34.1283 30.9613 35.353 30.4048 36.3071C29.8482 37.2612 28.6235 37.5834 27.6694 37.0268L13.0193 28.4806C12.0653 27.924 11.743 26.6994 12.2996 25.7453Z" fill="#7963FB"/>
</svg>
