<svg width="42" height="42" viewBox="0 0 42 42" fill="none" xmlns="http://www.w3.org/2000/svg">
  <path d="M6.3 33.6v7.909l3.182-1.91 10-5.999H29.4c2.316 0 4.2-1.884 4.2-4.2V12.6c0-2.316-1.884-4.2-4.2-4.2H4.2A4.204 4.204 0 0 0 0 12.6v16.8c0 2.316 1.884 4.2 4.2 4.2h2.1Zm-2.1-21h25.2v16.8H18.318L10.5 34.091V29.4H4.2V12.6Z" fill="#7963FB"/>
  <path d="M37.8 0H12.6a4.204 4.204 0 0 0-4.2 4.2h25.2c2.316 0 4.2 1.884 4.2 4.2v16.8c2.316 0 4.2-1.884 4.2-4.2V4.2C42 1.884 40.116 0 37.8 0Z" fill="#7963FB"/>
</svg>