<svg width="38" height="42" viewBox="0 0 38 42" fill="none" xmlns="http://www.w3.org/2000/svg">
  <path fill-rule="evenodd" clip-rule="evenodd" d="M30.48 3.56a3.96 3.96 0 1 0 0 7.92 3.96 3.96 0 0 0 0-7.92Zm-7.52 3.96a7.52 7.52 0 1 1 15.04 0 7.52 7.52 0 0 1-15.04 0ZM30.48 30.347a3.96 3.96 0 1 0 0 7.92 3.96 3.96 0 0 0 0-7.92Zm-7.52 3.96a7.52 7.52 0 1 1 15.04 0 7.52 7.52 0 0 1-15.04 0ZM7.52 16.953a3.96 3.96 0 1 0 0 7.92 3.96 3.96 0 0 0 0-7.92ZM0 20.913a7.52 7.52 0 1 1 15.04 0 7.52 7.52 0 0 1-15.04 0Z" fill="#7963FB"/>
  <path fill-rule="evenodd" clip-rule="evenodd" d="M27.058 9.516a1.78 1.78 0 0 1-.64 2.434L13.38 19.556a1.78 1.78 0 1 1-1.794-3.075l13.038-7.605a1.78 1.78 0 0 1 2.434.64ZM10.946 22.912a1.78 1.78 0 0 1 2.434-.641l13.038 7.605a1.78 1.78 0 0 1-1.794 3.075l-13.038-7.605a1.78 1.78 0 0 1-.64-2.434Z" fill="#7963FB"/>
</svg>