<svg version="1.1" id="Слой_1" xmlns="http://www.w3.org/2000/svg" xmlns:xlink="http://www.w3.org/1999/xlink" x="0px"
    y="0px" viewBox="0 0 2904 1501" style="enable-background:new 0 0 2904 1501;" xml:space="preserve">
    <g>
        <path fill="#7963fb"
            d="M2048.2,818.5c-57.4-25.1-114.1-51.5-171.1-77.3c-55.2-25-113.1-40.1-173.6-43.6 c-115.1-6.6-220.1,23.3-315.1,88.6c-7.5,5.1-14.7,10.7-21.1,15.4c0,42.3,0,83.3,0,124.4c6-5.6,11.4-10.8,16.9-15.9 c5.7-5.4,11.3-10.9,17.2-16c103.4-88.7,221.6-122,355.9-95.3c35.5,7.1,68.3,21.3,101.1,36.1c57,25.9,113.6,52.6,171.4,76.6 c75.3,31.2,154.2,40.7,235.1,31.8c92.7-10.2,175.7-44.9,249.8-101.4c2-1.5,3.8-3.4,5.5-4.9c0-41.6,0-82.7,0-125.5 c-13.6,13.1-25.5,25.4-38.3,36.9C2361.1,856.2,2196,883.1,2048.2,818.5z" />
        <path fill="#fff"
            d="M1708.2,16.4c-37,0-72,0-107.4,0c-178.7,309.6-357.3,618.9-536.5,929.3c37,0,71.9,0,107.4,0 C1350.6,635.9,1529.1,326.7,1708.2,16.4z" />
        <path fill="#fff"
            d="M2872.7,945.3c-103.8-179.9-207-358.6-310.3-537.4c-35.3,0-70.1,0-107.4,0 c104.1,180.3,207.4,359.2,310.2,537.4C2801.5,945.3,2836.4,945.3,2872.7,945.3z" />
    </g>
</svg>