<?xml version="1.0" standalone="no"?>
<!DOCTYPE svg PUBLIC "-//W3C//DTD SVG 20010904//EN" "http://www.w3.org/TR/2001/REC-SVG-20010904/DTD/svg10.dtd">
<svg version="1.0" xmlns="http://www.w3.org/2000/svg" width="640.000000pt" height="640.000000pt"
    viewBox="0 0 640.000000 640.000000" preserveAspectRatio="xMidYMid meet">
    <metadata>
        Created by potrace 1.14, written by Peter Selinger 2001-2017
    </metadata>
    <g transform="translate(0.000000,640.000000) scale(0.100000,-0.100000)" fill="#000000" stroke="none">
        <path d="M2998 6395 c-1 -1 -41 -6 -88 -9 -47 -3 -94 -8 -105 -10 -11 -2 -42
-7 -70 -10 -182 -25 -462 -95 -640 -162 -566 -213 -993 -523 -1410 -1025 -136
-163 -321 -474 -423 -709 -86 -201 -176 -493 -208 -680 -4 -25 -8 -47 -9 -50
-1 -3 -5 -32 -9 -65 -5 -33 -10 -69 -12 -79 -25 -136 -25 -659 0 -792 2 -11 7
-44 11 -74 26 -206 122 -557 204 -745 152 -350 337 -650 549 -889 79 -88 281
-286 362 -353 105 -87 289 -220 367 -264 32 -18 60 -35 63 -38 13 -15 254
-138 360 -183 308 -132 646 -217 975 -245 113 -10 477 -10 570 -1 39 4 88 9
110 12 34 3 163 24 255 41 14 3 61 14 105 25 44 12 90 23 101 25 32 7 220 69
294 98 204 78 465 215 649 341 40 28 83 58 95 66 118 80 394 335 526 485 226
257 450 633 572 960 28 74 88 255 92 279 2 6 8 29 14 51 6 22 13 51 16 65 3
14 8 36 11 50 9 38 34 180 41 230 3 25 8 54 10 65 25 129 25 655 0 780 -2 11
-7 47 -11 80 -22 194 -121 558 -204 750 -129 298 -263 528 -436 749 -103 132
-121 152 -275 306 -354 354 -762 605 -1245 768 -95 32 -297 87 -355 97 -19 3
-57 10 -85 15 -27 5 -68 12 -90 14 -111 15 -142 19 -165 22 -31 6 -507 14
-512 9z" />
    </g>
</svg>