<?xml version="1.0" standalone="no"?>
<!DOCTYPE svg PUBLIC "-//W3C//DTD SVG 20010904//EN"
 "http://www.w3.org/TR/2001/REC-SVG-20010904/DTD/svg10.dtd">
<svg version="1.0" xmlns="http://www.w3.org/2000/svg"
 width="260.000000pt" height="260.000000pt" viewBox="0 0 260.000000 260.000000"
 preserveAspectRatio="xMidYMid meet">
<metadata>
Created by potrace 1.14, written by Peter Selinger 2001-2017
</metadata>
<g transform="translate(0.000000,260.000000) scale(0.100000,-0.100000)"
fill="#000000" stroke="none">
<path d="M753 1927 c-13 -21 -36 -60 -50 -85 -15 -26 -166 -288 -336 -582
-170 -294 -320 -553 -332 -576 l-24 -41 77 1 77 1 116 200 c91 157 630 1090
645 1116 2 3 -31 6 -72 6 l-76 -1 -25 -39z"/>
<path d="M2004 1395 c3 -8 31 -59 62 -112 31 -54 98 -170 149 -258 51 -88 121
-209 156 -270 l64 -110 77 -1 c42 0 75 2 74 5 -2 3 -81 141 -177 306 -95 165
-193 335 -217 378 l-44 77 -75 0 c-63 0 -74 -2 -69 -15z"/>
<path d="M780 993 c-105 -18 -197 -53 -286 -109 l-51 -32 1 -86 c0 -47 2 -86
4 -86 2 0 27 19 55 43 139 116 284 159 458 135 62 -8 112 -27 349 -131 149
-65 207 -80 320 -82 147 -3 308 45 417 124 l40 29 -1 86 c0 47 -2 86 -4 86 -2
0 -29 -23 -59 -50 -98 -89 -242 -144 -379 -142 -100 0 -169 21 -361 106 -93
41 -194 82 -226 91 -55 16 -224 27 -277 18z"/>
</g>
</svg>
