<svg width="90" height="46" viewBox="0 0 90 46" fill="none" xmlns="http://www.w3.org/2000/svg">
    <path d="M63.1802 25.1299C61.3826 24.3435 59.607 23.5164 57.822 22.708C56.0934 21.9248 54.2802 21.4517 52.3855 21.342C48.7811 21.1353 45.4929 22.072 42.5179 24.1179C42.283 24.2777 42.0575 24.4531 41.8571 24.6004C41.8571 25.9257 41.8571 27.2102 41.8571 28.4979C42.045 28.3224 42.2141 28.1595 42.3864 27.9997C42.5649 27.8305 42.7402 27.6582 42.925 27.4984C46.1631 24.7194 49.8646 23.6761 54.0703 24.5127C55.1821 24.7351 56.2092 25.18 57.2364 25.6437C59.0214 26.4551 60.7939 27.2917 62.604 28.0436C64.962 29.0211 67.4329 29.3187 69.9663 29.0399C72.8693 28.7203 75.4686 27.6332 77.7891 25.863C77.8517 25.816 77.9081 25.7565 77.9613 25.7095C77.9613 24.4061 77.9613 23.1185 77.9613 21.7775C77.5354 22.188 77.1627 22.5733 76.7619 22.9336C72.9789 26.311 67.8087 27.1538 63.1802 25.1299Z" fill="white" />
    <path d="M27.5895 29.1123C29.9414 29.0528 31.6888 26.7406 31.194 24.4316C31.0437 23.7235 30.7211 23.1094 30.2295 22.5517C30.2671 22.4828 30.289 22.439 30.314 22.3951C31.7233 19.8385 29.9664 16.8622 27.0415 16.8559C25.244 16.8528 23.4433 16.8559 21.6458 16.8559C21.5393 16.8559 21.4297 16.8653 21.3232 16.8715C21.3232 20.9696 21.3232 25.0331 21.3232 29.1029C21.3796 29.1123 21.4203 29.1248 21.4579 29.1248C23.5028 29.1248 25.5446 29.1624 27.5895 29.1123ZM24.245 19.7821C24.6177 19.7821 24.9747 19.7821 25.3285 19.7821C25.9298 19.7821 26.5342 19.7727 27.1355 19.7853C27.6992 19.7978 28.0499 20.3367 27.8338 20.8411C27.7148 21.1168 27.4925 21.2985 27.1981 21.3017C26.221 21.3173 25.2408 21.3079 24.2419 21.3079C24.245 20.8004 24.245 20.3148 24.245 19.7821ZM24.2387 24.2467C24.2982 24.2373 24.3452 24.2216 24.3953 24.2216C25.3755 24.2216 26.3557 24.2122 27.3359 24.2248C27.8964 24.231 28.3129 24.6195 28.3505 25.1334C28.3912 25.6942 28.0186 26.1892 27.4518 26.208C26.3933 26.2425 25.3317 26.2174 24.2387 26.2174C24.2387 25.5407 24.2387 24.8984 24.2387 24.2467Z" fill="white" />
    <path d="M52.5327 0C51.374 0 50.2779 0 49.1694 0C43.5732 9.69988 37.9802 19.3904 32.3683 29.1153C33.527 29.1153 34.62 29.1153 35.7317 29.1153C41.3341 19.4091 46.924 9.72181 52.5327 0Z" fill="white" />
    <path d="M73.837 40.9425C73.8151 40.9519 73.7932 40.9581 73.7681 40.9675C72.0113 38.552 70.2545 36.1395 68.5164 33.7522C67.5206 33.7522 66.5623 33.7522 65.604 33.7522C65.604 37.8439 65.604 41.9137 65.604 45.9835C66.5748 45.9835 67.5237 45.9835 68.5101 45.9835C68.5101 43.5742 68.5101 41.1837 68.5101 38.7901C68.5289 38.7869 68.5509 38.7807 68.5697 38.7775C70.3233 41.1868 72.077 43.5962 73.8088 45.9804C74.8047 45.9804 75.7598 45.9804 76.7181 45.9804C76.7181 41.8949 76.7181 37.8314 76.7181 33.749C75.7567 33.749 74.8141 33.749 73.8339 33.749C73.837 36.1552 73.837 38.5488 73.837 40.9425Z" fill="white" />
    <path d="M41.8101 40.9489C41.7913 40.9521 41.7725 40.9583 41.7538 40.9615C40.0001 38.5522 38.2464 36.1429 36.5021 33.7461C35.5156 33.7461 34.5605 33.7461 33.5865 33.7461C33.5865 37.8472 33.5865 41.9108 33.5865 45.9743C34.5605 45.9743 35.5156 45.9743 36.4989 45.9743C36.4989 43.565 36.4989 41.1777 36.4989 38.7934C36.5177 38.7871 36.5365 38.7809 36.5584 38.7746C38.309 41.1808 40.0627 43.5901 41.8039 45.9806C42.7872 45.9806 43.7423 45.9806 44.7037 45.9806C44.7037 41.892 44.7037 37.8222 44.7037 33.7524C43.7361 33.7524 42.7903 33.7524 41.8101 33.7524C41.8101 36.1648 41.8101 38.5553 41.8101 40.9489Z" fill="white" />
    <path d="M88.9814 39.2349C88.6338 36.083 86.0158 33.7332 82.8403 33.727C81.3372 33.7238 79.8371 33.727 78.334 33.727C78.2244 33.727 78.1148 33.727 77.9895 33.727C77.9895 37.8469 77.9895 41.9105 77.9895 45.9834C78.0803 45.9897 78.1523 45.9991 78.2212 45.9991C79.8152 45.9991 81.4092 46.0022 83.0032 45.9959C83.2568 45.9959 83.5136 45.9678 83.7642 45.9333C86.9866 45.4978 89.3384 42.4744 88.9814 39.2349ZM86.1003 39.9523C86.0502 41.5314 84.8727 42.8817 83.3132 43.0415C82.5272 43.123 81.7286 43.0572 80.905 43.0572C80.905 40.9298 80.905 38.8088 80.905 36.6626C81.6723 36.6626 82.427 36.6595 83.1786 36.6658C83.3007 36.6658 83.4228 36.6971 83.5418 36.7222C85.0512 37.0292 86.1504 38.4203 86.1003 39.9523Z" fill="white" />
    <path d="M18.6238 36.8352C18.0162 34.9993 16.2751 33.7335 14.3491 33.7304C12.7458 33.7273 11.1392 33.7304 9.53587 33.7304C9.42939 33.7304 9.32292 33.7398 9.21957 33.7429C9.21957 37.8472 9.21957 41.9107 9.21957 45.9806C10.1841 45.9806 11.1298 45.9806 12.1069 45.9806C12.1069 44.9153 12.1069 43.8689 12.1069 42.8037C12.6361 42.8037 13.1309 42.8037 13.6351 42.8037C14.2521 43.872 14.8658 44.931 15.4671 45.9774C16.5914 45.9774 17.6874 45.9774 18.8273 45.9774C18.4453 45.3164 18.0851 44.6898 17.725 44.0631C17.3649 43.4365 17.0016 42.8099 16.6321 42.1708C16.7824 42.0643 16.9139 41.9734 17.0454 41.8763C18.5956 40.7171 19.2344 38.6775 18.6238 36.8352ZM14.7124 39.821C14.6623 39.8335 14.6122 39.8492 14.5621 39.8492C13.7573 39.8523 12.9524 39.8492 12.1163 39.8492C12.1163 38.7777 12.1163 37.7375 12.1163 36.6817C12.1915 36.6723 12.2572 36.6535 12.3261 36.6535C12.9994 36.6504 13.6727 36.6473 14.3491 36.6535C15.1884 36.6629 15.8335 37.2613 15.94 38.1041C16.0308 38.8686 15.4922 39.6268 14.7124 39.821Z" fill="white" />
    <path d="M26.2367 33.73C22.8514 33.7175 20.0831 36.4777 20.0768 39.8614C20.0737 43.2513 22.8233 45.999 26.221 45.999C29.6063 45.9959 32.3371 43.2638 32.3402 39.877C32.3433 36.4902 29.6126 33.7394 26.2367 33.73ZM26.2148 43.0947C24.4454 43.0978 22.9986 41.6472 22.9986 39.8708C22.9986 38.0881 24.4298 36.6531 26.2116 36.6531C27.9904 36.6531 29.4372 38.0975 29.4372 39.8676C29.4372 41.6347 27.981 43.0915 26.2148 43.0947Z" fill="white" />
    <path d="M13.3313 25.9167C13.4848 25.9167 13.6038 25.9198 13.7228 25.9167C14.5182 25.9042 15.3199 25.9449 16.1091 25.8634C18.7302 25.5971 20.5622 22.981 19.9703 20.4026C19.4849 18.3034 17.6686 16.856 15.5141 16.856C13.942 16.856 12.3668 16.856 10.7948 16.856C10.6851 16.856 10.5755 16.856 10.4471 16.856C10.4471 20.9602 10.4471 25.03 10.4471 29.1093C11.4117 29.1093 12.3543 29.1093 13.3313 29.1093C13.3313 28.044 13.3313 26.9976 13.3313 25.9167ZM13.347 19.7822C13.5005 19.7822 13.6382 19.7822 13.7792 19.7822C14.3804 19.7822 14.9848 19.7759 15.5861 19.7853C16.4191 19.7979 17.0673 20.4057 17.1644 21.2485C17.249 22.0004 16.7229 22.7461 15.9556 22.9466C15.8492 22.9748 15.7333 22.9904 15.6237 22.9904C14.9191 22.9936 14.2145 22.9936 13.5098 22.9936C13.4597 22.9936 13.4128 22.981 13.347 22.9716C13.347 21.9127 13.347 20.8662 13.347 19.7822Z" fill="white" />
    <path d="M59.3283 41.3626C60.3993 41.3626 61.4453 41.3626 62.4975 41.3626C62.4975 40.3819 62.4975 39.4358 62.4975 38.4457C61.4265 38.4457 60.3743 38.4457 59.3283 38.4457C59.3283 37.8254 59.3283 37.2489 59.3283 36.6411C61.01 36.6411 62.6728 36.6411 64.3263 36.6411C64.3263 35.6542 64.3263 34.7018 64.3263 33.7524C61.6707 33.7524 59.0402 33.7524 56.3971 33.7524C56.3971 37.8379 56.3971 41.9015 56.3971 45.9807C59.0527 45.9807 61.6895 45.9807 64.3326 45.9807C64.3326 45.0157 64.3326 44.0695 64.3326 43.092C62.6541 43.092 60.9943 43.092 59.3283 43.092C59.3283 42.503 59.3283 41.9485 59.3283 41.3626Z" fill="white" />
    <path d="M6.12556 21.8152C5.24245 21.6491 4.3656 21.458 3.48562 21.27C3.14428 21.1979 2.9188 20.9066 2.90628 20.5682C2.89375 20.2424 3.11609 19.9134 3.43552 19.8225C3.56078 19.7849 3.69857 19.7849 3.8301 19.7849C4.94495 19.7818 6.05666 19.7818 7.17151 19.7818C7.28112 19.7818 7.39073 19.7818 7.50033 19.7818C8.06089 18.8106 8.60579 17.8675 9.17887 16.8712C9.05987 16.865 9.00037 16.8587 8.944 16.8587C7.17464 16.8587 5.40842 16.8556 3.63907 16.8618C3.39481 16.8618 3.14741 16.8963 2.90941 16.9496C1.16824 17.3286 -0.0155045 18.8168 0.000153488 20.5933C0.0158115 22.3352 1.2434 23.8078 2.97204 24.1587C3.86141 24.3404 4.75392 24.519 5.64016 24.7069C6.06606 24.7978 6.30093 25.108 6.26961 25.5184C6.24143 25.932 5.91887 26.2171 5.45227 26.2233C4.59421 26.2296 3.73615 26.2265 2.87809 26.2265C2.48038 26.2265 2.08267 26.2265 1.67556 26.2265C1.12127 27.1852 0.573236 28.1376 0.000153488 29.1308C0.178655 29.1308 0.291392 29.1308 0.400998 29.1308C1.99498 29.1308 3.58896 29.1308 5.18295 29.1308C5.35519 29.1308 5.53056 29.1339 5.70279 29.1276C7.67883 29.0525 9.29161 27.2854 9.19139 25.3116C9.10684 23.5446 7.86047 22.141 6.12556 21.8152Z" fill="white" />
    <path d="M0.0220947 45.9834C0.983496 45.9834 1.92924 45.9834 2.9063 45.9834C2.9063 44.4514 2.9063 42.9319 2.9063 41.3779C3.99296 41.3779 5.04831 41.3779 6.11305 41.3779C6.11305 40.3847 6.11305 39.4323 6.11305 38.4391C5.03578 38.4391 3.98044 38.4391 2.93135 38.4391C2.93135 37.8219 2.93135 37.2485 2.93135 36.6439C4.61615 36.6439 6.27903 36.6439 7.95443 36.6439C7.95443 35.6632 7.95443 34.7108 7.95443 33.7427C5.30197 33.7427 2.67143 33.7427 0.0220947 33.7427C0.0220947 37.8313 0.0220947 41.9011 0.0220947 45.9834Z" fill="white" />
    <path d="M89.0002 29.103C85.7496 23.4667 82.5178 17.868 79.2828 12.2661C78.1774 12.2661 77.0876 12.2661 75.9195 12.2661C79.1795 17.915 82.4144 23.52 85.6337 29.103C86.7705 29.103 87.8634 29.103 89.0002 29.103Z" fill="white" />
    <path d="M45.9783 36.6596C47.018 36.6596 48.0357 36.6596 49.0848 36.6596C49.0848 39.7832 49.0848 42.8756 49.0848 45.9773C50.0713 45.9773 51.0233 45.9773 52.0097 45.9773C52.0097 42.863 52.0097 39.7707 52.0097 36.6471C53.0682 36.6471 54.0954 36.6471 55.1382 36.6471C55.1382 35.6664 55.1382 34.7203 55.1382 33.749C52.0661 33.749 49.0253 33.749 45.9783 33.749C45.9783 34.7234 45.9783 35.6758 45.9783 36.6596Z" fill="white" />
</svg>