<svg width="22" height="20" viewBox="0 0 22 20" fill="none" xmlns="http://www.w3.org/2000/svg">
    <path fill-rule="evenodd" clip-rule="evenodd" d="M10.8677 0C5.23844 0 0.678986 4.55945 0.678986 10.1887C0.678986 14.6972 3.59551 18.5053 7.64552 19.8553C8.15496 19.9444 8.34599 19.6388 8.34599 19.3713C8.34599 19.1293 8.33326 18.327 8.33326 17.4736C5.77334 17.9449 5.11108 16.8496 4.9073 16.2765C4.79268 15.9836 4.29598 15.0793 3.86296 14.8373C3.50635 14.6463 2.99692 14.1751 3.85022 14.1623C4.65259 14.1496 5.2257 14.901 5.41674 15.2067C6.33372 16.7477 7.79835 16.3147 8.3842 16.0472C8.47335 15.385 8.74081 14.9392 9.03373 14.6845C6.76674 14.4298 4.39787 13.551 4.39787 9.65381C4.39787 8.54579 4.79268 7.6288 5.44221 6.91559C5.34032 6.66087 4.98372 5.61653 5.5441 4.21558C5.5441 4.21558 6.3974 3.94813 8.34599 5.25993C9.16109 5.03068 10.0271 4.91606 10.8932 4.91606C11.7592 4.91606 12.6253 5.03068 13.4404 5.25993C15.3889 3.93539 16.2423 4.21558 16.2423 4.21558C16.8026 5.61653 16.446 6.66087 16.3441 6.91559C16.9937 7.6288 17.3885 8.53305 17.3885 9.65381C17.3885 13.5637 15.0069 14.4298 12.7399 14.6845C13.1092 15.0029 13.4276 15.6142 13.4276 16.5694C13.4276 17.9321 13.4149 19.0274 13.4149 19.3713C13.4149 19.6388 13.6059 19.9571 14.1154 19.8553C16.138 19.1724 17.8955 17.8724 19.1407 16.1384C20.3858 14.4043 21.0558 12.3235 21.0564 10.1887C21.0564 4.55945 16.497 0 10.8677 0Z" fill="white" />
</svg>