<svg xmlns="http://www.w3.org/2000/svg" viewBox="0 0 50 50"><path style="line-height:normal;text-indent:0;text-align:start;text-decoration-line:none;text-decoration-style:solid;text-decoration-color:#000;text-transform:none;block-progression:tb;isolation:auto;mix-blend-mode:normal" d="M25 2C12.31 2 2 12.31 2 25s10.31 23 23 23 23-10.31 23-23S37.69 2 25 2zm0 2c11.61 0 21 9.39 21 21s-9.39 21-21 21S4 36.61 4 25 13.39 4 25 4zm9.053 8c-.074-.004-.15.002-.227.016L20.13 14.61c-.653.114-1.13.68-1.13 1.345v13.268c0 .457-.31.855-.754.968l-3.445.88-.29.07c-1.31.39-2.3 1.52-2.48 2.91-.044.325-.04.648.01.973C12.31 36.786 13.98 38 15.765 38h.1C18.7 38 21 35.7 21 32.865V22.328c0-.676.485-1.254 1.15-1.37l9.676-1.884c.613-.108 1.174.363 1.174.985v6.163c0 .457-.31.855-.754.968l-3.445.88-.29.07c-1.31.39-2.3 1.52-2.48 2.91-.044.325-.04.648.01.973C26.31 33.786 27.98 35 29.765 35h.1C32.7 35 35 32.7 35 29.865V13c0-.544-.43-.974-.947-1z" font-weight="400" font-family="sans-serif" overflow="visible"/></svg>
