<svg xmlns="http://www.w3.org/2000/svg" viewBox="0 0 189.473 189.473"><path d="M152.53 179.476c-1.48 0-2.95-.438-4.21-1.293l-47.64-32.316-25.553 18.386c-2.004 1.44-4.587 1.804-6.914.972-2.324-.834-4.09-2.76-4.72-5.146l-12.83-48.623-45.842-17.53C1.936 92.825.02 90.064 0 86.974c-.02-3.09 1.855-5.877 4.727-7.02l174.312-69.36c.79-.336 1.627-.53 2.47-.582.303-.017.606-.017.907 0 1.748.104 3.465.816 4.805 2.13.14.136.27.275.396.42 1.11 1.268 1.72 2.814 1.835 4.39.028.395.026.796-.01 1.197-.023.286-.064.57-.122.854L159.9 173.38c-.473 2.48-2.16 4.556-4.493 5.523-.925.384-1.902.573-2.874.573zm-47.668-48.897l42.437 28.784L170.192 39.24l-82.687 79.566 17.156 11.638c.07.043.135.09.2.135zm-35.327-6.402l5.682 21.53 12.242-8.81-16.03-10.873c-.746-.504-1.384-1.132-1.895-1.847zm-41.4-37.396l31.48 12.035c2.254.862 3.956 2.758 4.572 5.092l3.992 15.128c.182-1.745.973-3.387 2.258-4.624l78.79-75.814L28.135 86.782z"/></svg>