<svg width="42" height="40" viewBox="0 0 42 40" fill="none" xmlns="http://www.w3.org/2000/svg">
  <path fill-rule="evenodd" clip-rule="evenodd" d="M29.09 14.546c0-1.005.815-1.819 1.82-1.819h1.817a9.09 9.09 0 0 1 0 18.182H30.91a1.818 1.818 0 1 1 0-3.636h1.818a5.454 5.454 0 1 0 0-10.91H30.91a1.818 1.818 0 0 1-1.818-1.817Z" fill="#7963FB"/>
  <path fill-rule="evenodd" clip-rule="evenodd" d="M0 14.546c0-1.005.814-1.819 1.818-1.819H30.91c1.004 0 1.818.814 1.818 1.819v16.363A9.09 9.09 0 0 1 23.637 40H9.09A9.091 9.091 0 0 1 0 30.91V14.545Zm3.636 1.818v14.545a5.455 5.455 0 0 0 5.455 5.455h14.545a5.455 5.455 0 0 0 5.455-5.455V16.364H3.636ZM9.09 0c1.005 0 1.82.814 1.82 1.818v5.455a1.818 1.818 0 1 1-3.637 0V1.818C7.273.814 8.087 0 9.09 0ZM16.364 0c1.004 0 1.818.814 1.818 1.818v5.455a1.818 1.818 0 1 1-3.636 0V1.818C14.546.814 15.36 0 16.364 0ZM23.636 0c1.005 0 1.819.814 1.819 1.818v5.455a1.818 1.818 0 1 1-3.637 0V1.818C21.818.814 22.632 0 23.636 0Z" fill="#7963FB"/>
</svg>