<svg width="39" height="31" viewBox="0 0 39 31" fill="none" xmlns="http://www.w3.org/2000/svg">
  <path d="M37.607 0H1.393C.623 0 0 .622 0 1.393V29.25c0 .77.622 1.393 1.393 1.393h36.214c.77 0 1.393-.623 1.393-1.393V1.393C39 .623 38.378 0 37.607 0Zm-1.74 4.823v22.686H3.133V4.823l-1.201-.936 1.71-2.198 1.863 1.45h27.992l1.863-1.45 1.71 2.198-1.205.936Zm-2.369-1.69L19.5 14.017 5.502 3.134l-1.863-1.45-1.71 2.199 1.2.935L18 16.38a2.437 2.437 0 0 0 2.99 0L35.866 4.823l1.201-.936-1.71-2.198-1.859 1.445Z" fill="#7963FB"/>
</svg>