<svg width="38" height="38" viewBox="0 0 38 38" fill="none" xmlns="http://www.w3.org/2000/svg">
  <path fill-rule="evenodd" clip-rule="evenodd" d="M13.932 0a3.8 3.8 0 1 0 .002 7.6h3.8V3.8a3.804 3.804 0 0 0-3.8-3.8h-.002Zm0 10.134H3.8a3.8 3.8 0 0 0 0 7.6h10.132a3.8 3.8 0 1 0 0-7.6ZM38 13.932a3.8 3.8 0 0 0-7.6 0v3.8h3.8a3.8 3.8 0 0 0 3.8-3.8Zm-10.134 0V3.8a3.8 3.8 0 0 0-7.6 0v10.132a3.8 3.8 0 1 0 7.6 0ZM24.066 38a3.8 3.8 0 0 0 0-7.6h-3.8v3.8a3.802 3.802 0 0 0 3.8 3.8Zm0-10.136H34.2a3.8 3.8 0 0 0 0-7.6H24.068a3.8 3.8 0 0 0-.002 7.6ZM0 24.066a3.8 3.8 0 1 0 7.6 0v-3.8H3.8a3.8 3.8 0 0 0-3.8 3.8Zm10.134 0v10.132a3.8 3.8 0 0 0 7.6.002V24.068a3.8 3.8 0 0 0-7.6-.002Z" fill="#7963FB"/>
</svg>