<svg width="66" height="35" viewBox="0 0 66 35" fill="none" xmlns="http://www.w3.org/2000/svg">
<path d="M46.8436 18.6086C45.5109 18.0263 44.1944 17.4138 42.8709 16.8153C41.5893 16.2353 40.2449 15.885 38.8402 15.8038C36.1677 15.6507 33.7298 16.3443 31.524 17.8593C31.3499 17.9776 31.1827 18.1075 31.0341 18.2166C31.0341 19.1979 31.0341 20.1491 31.0341 21.1026C31.1734 20.9727 31.2988 20.8521 31.4265 20.7337C31.5588 20.6085 31.6889 20.4809 31.8258 20.3625C34.2266 18.3047 36.9711 17.5322 40.0893 18.1516C40.9136 18.3163 41.6752 18.6458 42.4367 18.9891C43.7602 19.59 45.0744 20.2094 46.4164 20.7662C48.1648 21.4901 49.9967 21.7105 51.8751 21.504C54.0275 21.2673 55.9546 20.4623 57.6751 19.1515C57.7215 19.1167 57.7633 19.0726 57.8028 19.0378C57.8028 18.0727 57.8028 17.1192 57.8028 16.1263C57.487 16.4302 57.2107 16.7155 56.9135 16.9823C54.1087 19.4833 50.2753 20.1073 46.8436 18.6086Z" fill="#7963FB"/>
<path d="M20.4557 21.5573C22.1994 21.5132 23.495 19.801 23.1281 18.0912C23.0167 17.5669 22.7775 17.1122 22.413 16.6992C22.4409 16.6482 22.4571 16.6157 22.4757 16.5832C23.5205 14.6901 22.218 12.4861 20.0493 12.4815C18.7166 12.4792 17.3815 12.4815 16.0488 12.4815C15.9698 12.4815 15.8886 12.4885 15.8096 12.4931C15.8096 15.5276 15.8096 18.5367 15.8096 21.5503C15.8514 21.5573 15.8816 21.5666 15.9095 21.5666C17.4256 21.5666 18.9395 21.5944 20.4557 21.5573ZM17.9759 14.6484C18.2522 14.6484 18.5169 14.6484 18.7793 14.6484C19.2251 14.6484 19.6732 14.6414 20.119 14.6507C20.5369 14.66 20.797 15.059 20.6368 15.4325C20.5485 15.6367 20.3837 15.7712 20.1654 15.7736C19.441 15.7852 18.7143 15.7782 17.9736 15.7782C17.9759 15.4024 17.9759 15.0428 17.9759 14.6484ZM17.9713 17.9543C18.0154 17.9474 18.0502 17.9358 18.0874 17.9358C18.8141 17.9358 19.5409 17.9288 20.2676 17.9381C20.6832 17.9427 20.992 18.2304 21.0199 18.6109C21.0501 19.0262 20.7738 19.3927 20.3535 19.4067C19.5687 19.4322 18.7816 19.4136 17.9713 19.4136C17.9713 18.9125 17.9713 18.4369 17.9713 17.9543Z" fill="white"/>
<path d="M38.9493 0C38.0902 0 37.2775 0 36.4556 0C32.3064 7.18267 28.1596 14.3584 23.9988 21.5596C24.8579 21.5596 25.6683 21.5596 26.4925 21.5596C30.6463 14.3723 34.7908 7.19891 38.9493 0Z" fill="white"/>
<path d="M54.7449 30.3175C54.7287 30.3245 54.7124 30.3291 54.6938 30.3361C53.3913 28.5474 52.0887 26.761 50.8001 24.9932C50.0617 24.9932 49.3512 24.9932 48.6407 24.9932C48.6407 28.0231 48.6407 31.0367 48.6407 34.0504C49.3605 34.0504 50.064 34.0504 50.7954 34.0504C50.7954 32.2663 50.7954 30.4962 50.7954 28.7237C50.8094 28.7214 50.8256 28.7167 50.8395 28.7144C52.1398 30.4985 53.44 32.2826 54.724 34.0481C55.4624 34.0481 56.1705 34.0481 56.881 34.0481C56.881 31.0228 56.881 28.0138 56.881 24.9908C56.1682 24.9908 55.4693 24.9908 54.7426 24.9908C54.7449 26.7726 54.7449 28.5451 54.7449 30.3175Z" fill="#7963FB"/>
<path d="M30.9993 30.3222C30.9853 30.3245 30.9714 30.3291 30.9575 30.3315C29.6572 28.5474 28.357 26.7633 27.0637 24.9885C26.3323 24.9885 25.6242 24.9885 24.9021 24.9885C24.9021 28.0254 24.9021 31.0344 24.9021 34.0434C25.6242 34.0434 26.3323 34.0434 27.0614 34.0434C27.0614 32.2594 27.0614 30.4915 27.0614 28.726C27.0753 28.7214 27.0893 28.7167 27.1055 28.7121C28.4034 30.4938 29.7037 32.2779 30.9946 34.0481C31.7237 34.0481 32.4319 34.0481 33.1447 34.0481C33.1447 31.0205 33.1447 28.0068 33.1447 24.9932C32.4272 24.9932 31.726 24.9932 30.9993 24.9932C30.9993 26.7796 30.9993 28.5497 30.9993 30.3222Z" fill="#7963FB"/>
<path d="M65.9734 29.0531C65.7157 26.7192 63.7746 24.9792 61.4203 24.9746C60.3058 24.9723 59.1936 24.9746 58.0791 24.9746C57.9979 24.9746 57.9166 24.9746 57.8237 24.9746C57.8237 28.0254 57.8237 31.0344 57.8237 34.0504C57.8911 34.055 57.9445 34.062 57.9955 34.062C59.1774 34.062 60.3592 34.0643 61.541 34.0597C61.7291 34.0597 61.9195 34.0388 62.1052 34.0133C64.4944 33.6908 66.2381 31.452 65.9734 29.0531ZM63.8373 29.5844C63.8002 30.7537 62.9272 31.7536 61.7709 31.8719C61.1881 31.9322 60.596 31.8835 59.9854 31.8835C59.9854 30.3082 59.9854 28.7376 59.9854 27.1484C60.5542 27.1484 61.1138 27.1461 61.671 27.1507C61.7616 27.1507 61.8521 27.1739 61.9404 27.1925C63.0595 27.4199 63.8745 28.4499 63.8373 29.5844Z" fill="#7963FB"/>
<path d="M13.8082 27.2761C13.3578 25.9166 12.0668 24.9793 10.6389 24.977C9.45011 24.9747 8.25899 24.977 7.0702 24.977C6.99126 24.977 6.91231 24.9839 6.83569 24.9863C6.83569 28.0254 6.83569 31.0345 6.83569 34.0481C7.55083 34.0481 8.25203 34.0481 8.97645 34.0481C8.97645 33.2593 8.97645 32.4845 8.97645 31.6957C9.36884 31.6957 9.7357 31.6957 10.1095 31.6957C10.5669 32.4868 11.022 33.2709 11.4678 34.0458C12.3014 34.0458 13.114 34.0458 13.9592 34.0458C13.6759 33.5563 13.4089 33.0923 13.1419 32.6283C12.8749 32.1643 12.6055 31.7003 12.3315 31.227C12.443 31.1481 12.5405 31.0809 12.638 31.0089C13.7873 30.1505 14.261 28.6402 13.8082 27.2761ZM10.9082 29.487C10.8711 29.4963 10.8339 29.5079 10.7968 29.5079C10.2001 29.5102 9.60335 29.5079 8.98341 29.5079C8.98341 28.7145 8.98341 27.9442 8.98341 27.1624C9.03914 27.1554 9.0879 27.1415 9.13898 27.1415C9.63818 27.1392 10.1374 27.1369 10.6389 27.1415C11.2612 27.1485 11.7395 27.5916 11.8184 28.2157C11.8857 28.7818 11.4864 29.3432 10.9082 29.487Z" fill="#7963FB"/>
<path d="M19.4527 24.977C16.9427 24.9677 14.8902 27.0116 14.8856 29.5172C14.8832 32.0274 16.9218 34.062 19.4411 34.062C21.951 34.0597 23.9756 32.0367 23.978 29.5288C23.9803 27.0209 21.9556 24.9839 19.4527 24.977ZM19.4364 31.9114C18.1246 31.9137 17.0519 30.8396 17.0519 29.5241C17.0519 28.2041 18.1129 27.1415 19.4341 27.1415C20.7529 27.1415 21.8256 28.211 21.8256 29.5218C21.8256 30.8303 20.7459 31.9091 19.4364 31.9114Z" fill="#7963FB"/>
<path d="M9.88428 19.1909C9.99805 19.1909 10.0863 19.1932 10.1745 19.1909C10.7643 19.1816 11.3587 19.2118 11.9438 19.1515C13.8872 18.9543 15.2455 17.0171 14.8066 15.1077C14.4467 13.5533 13.1001 12.4815 11.5026 12.4815C10.337 12.4815 9.16915 12.4815 8.00358 12.4815C7.92231 12.4815 7.84105 12.4815 7.74585 12.4815C7.74585 15.5207 7.74585 18.5343 7.74585 21.555C8.46098 21.555 9.15986 21.555 9.88428 21.555C9.88428 20.7662 9.88428 19.9913 9.88428 19.1909ZM9.89589 14.6484C10.0097 14.6484 10.1118 14.6484 10.2163 14.6484C10.6621 14.6484 11.1102 14.6437 11.556 14.6507C12.1736 14.66 12.6543 15.11 12.7262 15.7341C12.7889 16.2909 12.3989 16.8431 11.83 16.9916C11.7511 17.0124 11.6651 17.024 11.5839 17.024C11.0615 17.0264 10.539 17.0264 10.0166 17.0264C9.97948 17.0264 9.94465 17.0171 9.89589 17.0101C9.89589 16.226 9.89589 15.4511 9.89589 14.6484Z" fill="white"/>
<path d="M43.9877 30.6285C44.7818 30.6285 45.5573 30.6285 46.3375 30.6285C46.3375 29.9023 46.3375 29.2017 46.3375 28.4686C45.5434 28.4686 44.7632 28.4686 43.9877 28.4686C43.9877 28.0092 43.9877 27.5823 43.9877 27.1323C45.2346 27.1323 46.4675 27.1323 47.6934 27.1323C47.6934 26.4015 47.6934 25.6962 47.6934 24.9932C45.7245 24.9932 43.7741 24.9932 41.8145 24.9932C41.8145 28.0185 41.8145 31.0275 41.8145 34.0481C43.7834 34.0481 45.7384 34.0481 47.6981 34.0481C47.6981 33.3336 47.6981 32.6329 47.6981 31.9091C46.4536 31.9091 45.223 31.9091 43.9877 31.9091C43.9877 31.4729 43.9877 31.0623 43.9877 30.6285Z" fill="#7963FB"/>
<path d="M4.54167 16.1541C3.88691 16.0311 3.23679 15.8896 2.58434 15.7504C2.33126 15.6971 2.16409 15.4813 2.1548 15.2307C2.14551 14.9895 2.31036 14.7459 2.54719 14.6786C2.64007 14.6508 2.74223 14.6508 2.83975 14.6508C3.66633 14.6484 4.49059 14.6484 5.31717 14.6484C5.39844 14.6484 5.4797 14.6484 5.56097 14.6484C5.97658 13.9292 6.38058 13.2309 6.80548 12.4932C6.71725 12.4885 6.67314 12.4839 6.63134 12.4839C5.31949 12.4839 4.00997 12.4816 2.69811 12.4862C2.51701 12.4862 2.33358 12.5117 2.15712 12.5512C0.866167 12.8319 -0.0114955 13.9339 0.000113801 15.2493C0.0117231 16.5392 0.921892 17.6296 2.20356 17.8894C2.86297 18.024 3.5247 18.1562 4.18178 18.2954C4.49756 18.3627 4.6717 18.5924 4.64848 18.8963C4.62758 19.2026 4.38843 19.4137 4.04247 19.4183C3.40628 19.423 2.77009 19.4206 2.1339 19.4206C1.83903 19.4206 1.54415 19.4206 1.24231 19.4206C0.831339 20.1305 0.425014 20.8358 0.000113801 21.5713C0.13246 21.5713 0.216047 21.5713 0.297312 21.5713C1.47914 21.5713 2.66096 21.5713 3.84279 21.5713C3.97049 21.5713 4.10052 21.5736 4.22822 21.5689C5.69331 21.5133 6.88907 20.2048 6.81477 18.7432C6.75208 17.4347 5.82798 16.3954 4.54167 16.1541Z" fill="white"/>
<path d="M0.0163574 34.0504C0.729168 34.0504 1.43037 34.0504 2.15479 34.0504C2.15479 32.9159 2.15479 31.7907 2.15479 30.64C2.96048 30.64 3.74294 30.64 4.53238 30.64C4.53238 29.9046 4.53238 29.1993 4.53238 28.4639C3.73366 28.4639 2.95119 28.4639 2.17337 28.4639C2.17337 28.0069 2.17337 27.5823 2.17337 27.1345C3.42253 27.1345 4.65543 27.1345 5.89763 27.1345C5.89763 26.4084 5.89763 25.7031 5.89763 24.9862C3.93101 24.9862 1.98065 24.9862 0.0163574 24.9862C0.0163574 28.0138 0.0163574 31.0275 0.0163574 34.0504Z" fill="#7963FB"/>
<path d="M65.9873 21.5503C63.5773 17.3767 61.1811 13.2309 58.7826 9.08273C57.963 9.08273 57.155 9.08273 56.2889 9.08273C58.706 13.2657 61.1045 17.4161 63.4913 21.5503C64.3342 21.5503 65.1445 21.5503 65.9873 21.5503Z" fill="white"/>
<path d="M34.0896 27.1461C34.8605 27.1461 35.6151 27.1461 36.3929 27.1461C36.3929 29.4591 36.3929 31.749 36.3929 34.0457C37.1243 34.0457 37.8301 34.0457 38.5615 34.0457C38.5615 31.7397 38.5615 29.4499 38.5615 27.1368C39.3463 27.1368 40.1079 27.1368 40.8811 27.1368C40.8811 26.4107 40.8811 25.71 40.8811 24.9908C38.6033 24.9908 36.3488 24.9908 34.0896 24.9908C34.0896 25.7124 34.0896 26.4176 34.0896 27.1461Z" fill="#7963FB"/>
</svg>
