<svg width="72.4" height="15.7" xmlns="http://www.w3.org/2000/svg" fill="none">
    <path stroke="null" fill="rgb(121 99 251)"
        d="m42.69626,7.64086c-3.59942,-1.57465 -7.15479,-3.23079 -10.72898,-4.84949c-3.46126,-1.56824 -7.09191,-2.51555 -10.88576,-2.73521c-7.21726,-0.41389 -13.80138,1.46171 -19.75836,5.55832c-0.47035,0.31998 -0.92188,0.67119 -1.32315,0.96613c0,2.65371 0,5.22573 0,7.80415c0.37624,-0.35141 0.71484,-0.67759 1.05984,-0.99757c0.35742,-0.3388 0.70843,-0.6838 1.07846,-1.00378c6.4838,-5.56452 13.89549,-7.65357 22.31676,-5.97841c2.22621,0.44532 4.28282,1.33617 6.33963,2.26465c3.57419,1.6247 7.12335,3.29987 10.7478,4.80543c4.72154,1.95729 9.66914,2.55319 14.74188,1.99494c5.81281,-0.63995 11.01752,-2.8167 15.66396,-6.36126c0.12535,-0.09411 0.23828,-0.21325 0.3448,-0.30736c0,-2.60986 0,-5.18808 0,-7.87323c-0.8528,0.82196 -1.59907,1.59347 -2.40162,2.31491c-7.57488,6.76273 -17.92742,8.45031 -27.19528,4.39776z" />
</svg>